<svg width="150" height="151" viewBox="0 0 150 151" fill="none" xmlns="http://www.w3.org/2000/svg">
<g clip-path="url(#clip0_73_4620)">
<path d="M75 148.642C115.208 148.642 147.803 116.047 147.803 75.8389C147.803 35.631 115.208 3.03613 75 3.03613C34.7922 3.03613 2.19727 35.631 2.19727 75.8389C2.19727 116.047 34.7922 148.642 75 148.642Z" fill="#1037B6"/>
<path d="M74.9999 3.03613C73.7003 3.03613 72.4089 3.07158 71.126 3.13896C109.533 5.15283 140.055 36.9306 140.055 75.8389C140.055 114.747 109.533 146.525 71.1263 148.539C72.4092 148.606 73.7003 148.642 75.0002 148.642C115.208 148.642 147.803 116.047 147.803 75.8389C147.803 35.631 115.208 3.03613 74.9999 3.03613Z" fill="#F68B21"/>
<path d="M74.9999 132.57C106.332 132.57 131.731 107.171 131.731 75.8389C131.731 44.507 106.332 19.1075 74.9999 19.1075C43.668 19.1075 18.2686 44.507 18.2686 75.8389C18.2686 107.171 43.668 132.57 74.9999 132.57Z" fill="#F4FBFF"/>
<path d="M75.0002 19.1075C73.429 19.1075 71.8736 19.1743 70.335 19.2997C99.4842 21.6728 122.401 46.0782 122.401 75.8389C122.401 105.6 99.4842 130.005 70.335 132.378C71.8739 132.503 73.4293 132.57 75.0002 132.57C106.332 132.57 131.732 107.171 131.732 75.8389C131.732 44.5071 106.332 19.1075 75.0002 19.1075Z" fill="#DAF1F4"/>
<path d="M74.9999 81.7035C78.2389 81.7035 80.8645 79.0778 80.8645 75.8389C80.8645 72.5999 78.2389 69.9742 74.9999 69.9742C71.7609 69.9742 69.1353 72.5999 69.1353 75.8389C69.1353 79.0778 71.7609 81.7035 74.9999 81.7035Z" fill="#F68B21"/>
<path d="M75 36.5685C76.2135 36.5685 77.1973 35.5847 77.1973 34.3712V31.1462C77.1973 29.9328 76.2135 28.949 75 28.949C73.7865 28.949 72.8027 29.9328 72.8027 31.1462V34.3712C72.8027 35.5847 73.7865 36.5685 75 36.5685Z" fill="black"/>
<path d="M108.037 42.7322C107.179 41.8741 105.788 41.8738 104.93 42.7322L102.65 45.0124C101.791 45.8705 101.791 47.2618 102.649 48.1199C103.079 48.5488 103.641 48.7635 104.203 48.7635C104.766 48.7635 105.328 48.5491 105.757 48.1202L108.037 45.8397C108.895 44.9816 108.895 43.5903 108.037 42.7322Z" fill="black"/>
<path d="M116.229 73.6418C115.015 73.6418 114.032 74.6256 114.032 75.8391C114.032 77.0526 115.015 78.0364 116.229 78.0364H119.454C120.668 78.0364 121.651 77.0529 121.651 75.8391C121.651 74.6253 120.668 73.6418 119.454 73.6418H116.229Z" fill="black"/>
<path d="M105.588 103.488C104.729 102.63 103.338 102.63 102.48 103.488C101.622 104.346 101.622 105.738 102.48 106.596L104.76 108.876C105.189 109.305 105.752 109.519 106.314 109.519C106.876 109.519 107.439 109.305 107.868 108.876C108.726 108.017 108.726 106.626 107.868 105.768L105.588 103.488Z" fill="black"/>
<path d="M72.5635 117.068V120.293C72.5635 121.507 73.5473 122.49 74.7607 122.49C75.9742 122.49 76.958 121.507 76.958 120.293V117.068C76.958 115.854 75.9745 114.871 74.7607 114.871C73.547 114.871 72.5635 115.854 72.5635 117.068Z" fill="black"/>
<path d="M44.0041 103.319L41.7237 105.599C40.8656 106.457 40.8656 107.848 41.7237 108.706C42.1526 109.135 42.7151 109.35 43.2773 109.35C43.8395 109.35 44.402 109.135 44.8309 108.706L47.1114 106.426C47.9695 105.568 47.9695 104.177 47.1114 103.319C46.2536 102.461 44.8622 102.461 44.0041 103.319Z" fill="black"/>
<path d="M30.3071 73.4026C29.0937 73.4026 28.1099 74.3864 28.1099 75.5999C28.1099 76.8136 29.0937 77.7971 30.3071 77.7971H33.5321C34.7456 77.7971 35.7294 76.8136 35.7294 75.5999C35.7294 74.3864 34.7456 73.4026 33.5321 73.4026H30.3071Z" fill="black"/>
<path d="M47.281 44.8434L45.0005 42.5629C44.1421 41.7048 42.7514 41.7051 41.893 42.5629C41.0349 43.421 41.0352 44.8123 41.893 45.6704L44.1735 47.9506C44.6027 48.3798 45.1649 48.5942 45.7271 48.5942C46.2893 48.5942 46.8518 48.3798 47.281 47.9506C48.1391 47.0925 48.1388 45.7015 47.281 44.8434Z" fill="black"/>
<path d="M80.8879 81.3373L96.5389 89.3852C97.6246 89.9435 98.9459 89.5088 99.4979 88.4359C100.053 87.3566 99.6277 86.0321 98.5487 85.477L82.9029 77.4317C83.0067 76.9164 83.0617 76.3838 83.0617 75.8386C83.0617 72.1551 80.5777 69.0429 77.1974 68.0837V45.6871C77.1974 44.4737 76.2136 43.4899 75.0001 43.4899C73.7866 43.4899 72.8028 44.4737 72.8028 45.6871V68.0837C70.1216 68.8445 68.0061 70.9601 67.2452 73.6413H56.3389C55.1254 73.6413 54.1416 74.6251 54.1416 75.8386C54.1416 77.052 55.1254 78.0358 56.3389 78.0358H67.2452C68.2044 81.4161 71.3166 83.9005 75.0001 83.9005C77.3216 83.9008 79.4157 82.9132 80.8879 81.3373ZM74.9998 79.5062C72.9777 79.5062 71.3324 77.8612 71.3324 75.8389C71.3324 73.8168 72.9775 72.1715 74.9998 72.1715C77.0219 72.1715 78.6669 73.8165 78.6669 75.8389C78.6672 77.8612 77.0219 79.5062 74.9998 79.5062Z" fill="#F68B21"/>
<path d="M131.731 73.6375C132.941 73.5449 133.847 72.4891 133.754 71.2788C132.624 56.5153 126.011 42.8105 115.133 32.6887C104.198 22.5139 89.9454 16.9103 74.9999 16.9103C42.5067 16.9103 16.0713 43.3454 16.0713 75.8389C16.0713 108.332 42.5067 134.768 74.9999 134.768C105.731 134.768 131.403 111.094 133.754 80.3995C133.846 79.1896 132.941 78.1337 131.731 78.0408C130.526 77.9503 129.465 78.8538 129.372 80.0641C127.202 108.405 103.498 130.373 74.9999 130.373C44.9296 130.373 20.4658 105.909 20.4658 75.8389C20.4658 45.7686 44.9296 21.3048 74.9999 21.3048C88.8304 21.3048 102.02 26.4904 112.139 35.9061C122.206 45.2735 128.327 57.9549 129.372 71.6146C129.465 72.824 130.517 73.7322 131.731 73.6375Z" fill="black"/>
<path d="M128.033 22.806C113.868 8.64004 95.0335 0.838867 75 0.838867C60.6026 0.838867 46.6163 4.92988 34.5524 12.6701C33.5311 13.3255 33.2344 14.6846 33.8897 15.7062C34.5451 16.7271 35.9039 17.0239 36.9258 16.3688C48.2798 9.08389 61.4458 5.2334 75 5.2334C93.8595 5.2334 111.59 12.5775 124.926 25.9132C138.261 39.2488 145.605 56.9793 145.605 75.8389C145.605 114.86 114.027 146.444 75 146.444C68.0264 146.444 61.1294 145.426 54.5004 143.418C53.3387 143.066 52.1121 143.722 51.7605 144.884C51.4087 146.046 52.0649 147.272 53.2262 147.624C60.2689 149.757 67.5946 150.839 75 150.839C116.45 150.839 150 117.295 150 75.8389C150 55.8057 142.198 36.9716 128.033 22.806Z" fill="black"/>
<path d="M46.5105 140.456C20.9262 129.159 4.39453 103.795 4.39453 75.8388C4.39453 54.7134 13.7435 34.8692 30.0439 21.3938C30.9791 20.6207 31.1106 19.2358 30.3372 18.3004C29.5644 17.3655 28.1795 17.234 27.2437 18.0068C9.93017 32.3198 0 53.3986 0 75.8388C0 105.534 17.5597 132.476 44.7352 144.476C45.0237 144.604 45.3252 144.664 45.6217 144.664C46.4654 144.664 47.2699 144.175 47.6329 143.353C48.123 142.243 47.6206 140.946 46.5105 140.456Z" fill="black"/>
</g>
<defs>
<clipPath id="clip0_73_4620">
<rect width="150" height="150" fill="white" transform="translate(0 0.838867)"/>
</clipPath>
</defs>
</svg>
