<svg width="151" height="151" viewBox="0 0 151 151" fill="none" xmlns="http://www.w3.org/2000/svg">
<path d="M103.742 108.417H68.9609V119.526H122.867L103.742 108.417Z" fill="#F68B21"/>
<path d="M99.6406 119.526H64.8828V130.636H118.789L99.6406 119.526Z" fill="#F68B21"/>
<path d="M99.6406 97.2842H64.8828V108.394H96.5938L99.6406 97.2842Z" fill="#F68B21"/>
<path d="M64.8828 75.0654V86.1748H118.789V75.0654H64.8828Z" fill="#F68B21"/>
<path d="M101.422 75.0654V86.1748H118.883V75.0654H101.422Z" fill="#F68B21"/>
<path d="M92.9141 97.2842C91.3938 100.792 90.5966 104.571 90.5703 108.394H96.5938L99.5703 97.2842H92.9141ZM92.9141 119.526C94.3331 122.846 96.3781 125.862 98.9375 128.409C99.7415 129.241 100.595 130.023 101.492 130.753H118.953L99.6406 119.526H92.9141Z" fill="#F68B21"/>
<path d="M118.602 86.1748H68.9609V97.2842H122.867L118.602 86.1748Z" fill="#F68B21"/>
<path d="M90.5938 108.417C90.6201 112.24 91.4172 116.018 92.9375 119.526H122.984L103.742 108.417H90.5938Z" fill="#E49542"/>
<path d="M101.422 86.1748C100.527 86.8987 99.6811 87.6817 98.8906 88.5186C96.3426 91.065 94.3129 94.0817 92.9141 97.4014H122.984L118.602 86.292L101.422 86.1748Z" fill="#E49542"/>
<path d="M141.125 108.394C141.13 112.794 139.829 117.096 137.388 120.757C134.947 124.418 131.475 127.272 127.411 128.959C123.347 130.646 118.874 131.09 114.558 130.235C110.242 129.379 106.276 127.263 103.164 124.153C100.051 121.043 97.9299 117.08 97.0697 112.765C96.2096 108.45 96.6487 103.976 98.3315 99.9107C100.014 95.8451 102.865 92.37 106.523 89.9249C110.181 87.4799 114.483 86.1748 118.883 86.1748C124.778 86.1748 130.432 88.5149 134.602 92.6811C138.773 96.8473 141.119 102.499 141.125 108.394Z" fill="#F68B21"/>
<path d="M118.883 48.042C118.883 53.3831 117.299 58.6042 114.331 63.0448C111.363 67.4855 107.145 70.9461 102.21 72.989C97.2749 75.0319 91.8449 75.5652 86.6068 74.5215C81.3686 73.4778 76.5577 70.904 72.7827 67.1256C69.0076 63.3472 66.4379 58.5341 65.3988 53.2951C64.3596 48.056 64.8977 42.6265 66.9448 37.6933C68.992 32.7601 72.4563 28.5449 76.8995 25.5809C81.3427 22.6169 86.5652 21.0374 91.9063 21.042C99.0611 21.0544 105.919 23.9038 110.976 28.9652C116.033 34.0267 118.877 40.8871 118.883 48.042Z" fill="#B9E4EF"/>
<path d="M111.125 48.042C111.125 51.8487 109.996 55.57 107.88 58.7348C105.765 61.8997 102.758 64.366 99.2411 65.8217C95.7236 67.2774 91.8535 67.6571 88.1202 66.9127C84.387 66.1684 80.9584 64.3334 78.2683 61.64C75.5781 58.9466 73.7473 55.5157 73.0075 51.7816C72.2677 48.0474 72.6521 44.1777 74.1121 40.6621C75.5721 37.1464 78.042 34.1428 81.2095 32.0313C84.3769 29.9198 88.0995 28.7952 91.9063 28.7998C97.0055 28.806 101.894 30.8361 105.497 34.444C109.101 38.0519 111.125 42.9427 111.125 48.042Z" fill="#F6F9F9"/>
<path d="M45.7578 61.7763L33.125 45.37H41.6328V27.4404C41.7114 26.397 42.1813 25.4219 42.9485 24.7104C43.7156 23.9989 44.7232 23.6035 45.7695 23.6035C46.8158 23.6035 47.8235 23.9989 48.5906 24.7104C49.3577 25.4219 49.8277 26.397 49.9063 27.4404V45.37H58.4141L45.7578 61.7763Z" fill="#F68B21"/>
<path d="M22.5312 87.5575L9.875 71.1513H18.3828V53.1747C18.4614 52.1314 18.9313 51.1563 19.6985 50.4448C20.4656 49.7333 21.4732 49.3379 22.5195 49.3379C23.5658 49.3379 24.5735 49.7333 25.3406 50.4448C26.1077 51.1563 26.5777 52.1314 26.6562 53.1747V71.1513H35.1875L22.5312 87.5575Z" fill="#F68B21"/>
<path d="M45.0313 113.339L32.3984 96.9326H40.9063V78.9091C40.8634 78.3397 40.9385 77.7676 41.1269 77.2285C41.3154 76.6895 41.6131 76.1951 42.0014 75.7765C42.3897 75.3578 42.8603 75.0238 43.3837 74.7954C43.907 74.567 44.4719 74.4491 45.043 74.4491C45.614 74.4491 46.1789 74.567 46.7023 74.7954C47.2256 75.0238 47.6962 75.3578 48.0845 75.7765C48.4729 76.1951 48.7706 76.6895 48.959 77.2285C49.1475 77.7676 49.2226 78.3397 49.1797 78.9091V96.9326H57.6875L45.0313 113.339Z" fill="#F68B21"/>
<path d="M118.883 86.1748C117.065 86.198 115.255 86.434 113.492 86.8779C118.279 88.0906 122.525 90.8649 125.557 94.7617C128.59 98.6586 130.237 103.456 130.237 108.394C130.237 113.332 128.59 118.128 125.557 122.025C122.525 125.922 118.279 128.697 113.492 129.909C115.268 130.372 117.094 130.616 118.93 130.636C124.835 130.636 130.498 128.29 134.674 124.114C138.849 119.939 141.195 114.275 141.195 108.37C141.195 102.465 138.849 96.8016 134.674 92.6259C130.498 88.4503 124.835 86.1045 118.93 86.1045L118.883 86.1748Z" fill="#F68B21"/>
<path d="M91.9063 28.8232C90.3241 28.8247 88.7487 29.0296 87.2188 29.4326C91.3708 30.4717 95.0565 32.8686 97.6901 36.2425C100.324 39.6163 101.754 43.7736 101.754 48.0537C101.754 52.3338 100.324 56.4911 97.6901 59.865C95.0565 63.2388 91.3708 65.6358 87.2188 66.6748C88.7487 67.0779 90.3241 67.2827 91.9063 67.2842C94.4881 67.3743 97.0617 66.9436 99.4735 66.0178C101.885 65.092 104.086 63.69 105.944 61.8953C107.803 60.1007 109.281 57.9503 110.29 55.5722C111.3 53.1941 111.82 50.6372 111.82 48.0537C111.82 45.4703 111.3 42.9133 110.29 40.5352C109.281 38.1571 107.803 36.0067 105.944 34.2121C104.086 32.4175 101.885 31.0154 99.4735 30.0896C97.0617 29.1638 94.4881 28.7331 91.9063 28.8232Z" fill="#E7ECF1"/>
<path d="M121.227 83.9482V75.0654C121.227 74.4438 120.98 73.8477 120.54 73.4081C120.101 72.9686 119.504 72.7216 118.883 72.7216H107.727C113.065 69.2973 117.15 64.2356 119.37 58.2947C121.59 52.3538 121.826 45.8535 120.041 39.7675C118.257 33.6815 114.549 28.3374 109.473 24.5356C104.396 20.7339 98.225 18.6791 91.8828 18.6791C85.5407 18.6791 79.3692 20.7339 74.2928 24.5356C69.2165 28.3374 65.5085 33.6815 63.7242 39.7675C61.94 45.8535 62.1756 52.3538 64.3956 58.2947C66.6157 64.2356 70.7008 69.2973 76.0391 72.7216H64.8828C64.2612 72.7216 63.6651 72.9686 63.2255 73.4081C62.786 73.8477 62.5391 74.4438 62.5391 75.0654V86.1748C62.5391 86.7964 62.786 87.3925 63.2255 87.8321C63.6651 88.2716 64.2612 88.5185 64.8828 88.5185H66.6172V94.9404H64.8828C64.2612 94.9404 63.6651 95.1873 63.2255 95.6269C62.786 96.0664 62.5391 96.6626 62.5391 97.2842V108.394C62.5391 109.015 62.786 109.611 63.2255 110.051C63.6651 110.49 64.2612 110.737 64.8828 110.737H66.6172V117.183H64.8828C64.2612 117.183 63.6651 117.43 63.2255 117.869C62.786 118.309 62.5391 118.905 62.5391 119.526V130.636C62.5391 131.257 62.786 131.853 63.2255 132.293C63.6651 132.733 64.2612 132.979 64.8828 132.979H118.789C125.137 133.034 131.258 130.629 135.872 126.268C140.485 121.908 143.231 115.931 143.534 109.591C143.837 103.25 141.673 97.0387 137.497 92.2582C133.321 87.4777 127.456 84.4996 121.133 83.9482H121.227ZM67.3203 48.042C67.325 43.1634 68.7768 38.3959 71.492 34.3428C74.2072 30.2897 78.0637 27.1331 82.5736 25.2726C87.0834 23.4121 92.0438 22.9313 96.827 23.891C101.61 24.8508 106.001 27.2079 109.444 30.6641C112.887 34.1203 115.228 38.5202 116.169 43.3071C117.111 48.0939 116.611 53.0524 114.733 57.5552C112.856 62.0579 109.685 65.9024 105.621 68.6022C101.558 71.3019 96.7848 72.7356 91.9063 72.7216C85.3608 72.7216 79.0834 70.1215 74.4551 65.4931C69.8267 60.8648 67.2266 54.5874 67.2266 48.042H67.3203ZM67.3203 77.4091H116.539V83.831H67.3203V77.4091ZM71.3984 88.5185H104.516C102.094 90.2745 100.007 92.4493 98.3516 94.9404H71.3047L71.3984 88.5185ZM94.5313 106.05H67.2266V99.6279H95.9609C95.1682 101.691 94.6558 103.851 94.4375 106.05H94.5313ZM71.3984 110.737H94.5313C94.7466 112.945 95.2591 115.113 96.0547 117.183H71.3047L71.3984 110.737ZM67.3203 128.292V121.87H98.3516C100.007 124.361 102.094 126.536 104.516 128.292H67.3203ZM119 128.292C115.06 128.315 111.201 127.168 107.913 124.996C104.626 122.823 102.057 119.724 100.533 116.09C99.0089 112.456 98.598 108.451 99.3525 104.584C100.107 100.716 101.993 97.1598 104.771 94.3652C107.549 91.5706 111.094 89.6638 114.958 88.8864C118.821 88.1091 122.828 88.4963 126.47 89.9988C130.113 91.5014 133.228 94.0517 135.419 97.3265C137.611 100.601 138.781 104.453 138.781 108.394C138.769 113.663 136.672 118.714 132.948 122.442C129.224 126.17 124.176 128.273 118.906 128.292H119Z" fill="#1037B6"/>
<path d="M121.695 98.8545V98.5967C121.695 97.9751 121.448 97.3789 121.009 96.9394C120.569 96.4999 119.973 96.2529 119.352 96.2529C118.73 96.2529 118.134 96.4999 117.694 96.9394C117.255 97.3789 117.008 97.9751 117.008 98.5967H114.078C113.77 98.5859 113.463 98.6359 113.175 98.7437C112.886 98.8515 112.622 99.0151 112.397 99.2251C111.942 99.6493 111.674 100.237 111.652 100.858C111.631 101.48 111.857 102.085 112.281 102.54C112.705 102.995 113.292 103.262 113.914 103.284V106.144C113.292 106.144 112.696 106.39 112.257 106.83C111.817 107.27 111.57 107.866 111.57 108.487C111.57 109.109 111.817 109.705 112.257 110.145C112.696 110.584 113.292 110.831 113.914 110.831V113.573C113.606 113.584 113.304 113.655 113.023 113.783C112.743 113.911 112.491 114.092 112.281 114.318C111.857 114.773 111.631 115.377 111.652 115.999C111.674 116.621 111.942 117.208 112.397 117.632C112.852 118.056 113.457 118.282 114.078 118.261H117.008C117.008 118.882 117.255 119.478 117.694 119.918C118.134 120.358 118.73 120.604 119.352 120.604C119.973 120.604 120.569 120.358 121.009 119.918C121.448 119.478 121.695 118.882 121.695 118.261V118.026C122.948 117.651 124.047 116.883 124.831 115.837C125.616 114.791 126.045 113.521 126.055 112.214C126.04 110.854 125.578 109.536 124.742 108.464C125.359 107.689 125.775 106.774 125.954 105.8C126.132 104.827 126.068 103.824 125.767 102.88C125.466 101.937 124.936 101.083 124.226 100.393C123.516 99.703 122.647 99.1987 121.695 98.9248V98.8545ZM121.367 112.144C121.367 112.517 121.219 112.874 120.955 113.138C120.692 113.402 120.334 113.55 119.961 113.55H118.602V110.737H120.031C120.392 110.755 120.732 110.911 120.98 111.173C121.229 111.435 121.368 111.782 121.367 112.144ZM118.602 106.05V103.261H120.031C120.404 103.261 120.762 103.409 121.026 103.673C121.289 103.936 121.438 104.294 121.438 104.667C121.438 104.851 121.401 105.032 121.33 105.202C121.259 105.371 121.155 105.524 121.024 105.653C120.893 105.782 120.738 105.883 120.568 105.951C120.397 106.019 120.215 106.053 120.031 106.05H118.602Z" fill="#1037B6"/>
<path d="M91.9063 26.4561C87.637 26.4561 83.4635 27.722 79.9138 30.0939C76.364 32.4658 73.5972 35.8371 71.9635 39.7814C70.3297 43.7257 69.9022 48.0659 70.7351 52.2532C71.568 56.4405 73.6238 60.2867 76.6427 63.3056C79.6615 66.3244 83.5078 68.3803 87.695 69.2132C91.8823 70.0461 96.2225 69.6186 100.167 67.9848C104.111 66.351 107.482 63.5843 109.854 60.0345C112.226 56.4847 113.492 52.3113 113.492 48.042C113.486 42.3189 111.21 36.8321 107.163 32.7853C103.116 28.7385 97.6293 26.4623 91.9063 26.4561ZM94.25 64.7529V60.7451C94.25 60.1235 94.0031 59.5274 93.5635 59.0878C93.124 58.6483 92.5279 58.4014 91.9063 58.4014C91.2847 58.4014 90.6885 58.6483 90.249 59.0878C89.8094 59.5274 89.5625 60.1235 89.5625 60.7451V64.7529C85.9322 64.2437 82.5664 62.5661 79.9743 59.974C77.3821 57.3818 75.7046 54.0161 75.1953 50.3857H79.2266C79.8482 50.3857 80.4443 50.1388 80.8839 49.6993C81.3234 49.2597 81.5703 48.6636 81.5703 48.042C81.5703 47.4204 81.3234 46.8243 80.8839 46.3847C80.4443 45.9452 79.8482 45.6982 79.2266 45.6982H75.1719C75.685 42.0632 77.3663 38.6936 79.9621 36.0978C82.5579 33.502 85.9275 31.8207 89.5625 31.3076V35.3389C89.5625 35.9605 89.8094 36.5566 90.249 36.9961C90.6885 37.4357 91.2847 37.6826 91.9063 37.6826C92.5279 37.6826 93.124 37.4357 93.5635 36.9961C94.0031 36.5566 94.25 35.9605 94.25 35.3389V31.3076C97.8774 31.8242 101.239 33.5041 103.83 36.0949C106.421 38.6857 108.101 42.0474 108.617 45.6748H104.563C103.941 45.6748 103.345 45.9217 102.905 46.3613C102.466 46.8008 102.219 47.397 102.219 48.0186C102.219 48.6402 102.466 49.2363 102.905 49.6758C103.345 50.1154 103.941 50.3623 104.563 50.3623H108.594C108.09 53.9935 106.418 57.362 103.83 59.9583C101.243 62.5547 97.8795 64.2378 94.25 64.7529Z" fill="#1037B6"/>
<path d="M102.477 37.4481C102.038 37.0116 101.444 36.7666 100.825 36.7666C100.205 36.7666 99.6114 37.0116 99.1723 37.4481L91.9067 44.7372L88.602 41.4325C88.1628 40.996 87.5688 40.751 86.9496 40.751C86.3304 40.751 85.7364 40.996 85.2973 41.4325C85.0776 41.6504 84.9032 41.9096 84.7843 42.1952C84.6653 42.4808 84.604 42.7872 84.604 43.0966C84.604 43.406 84.6653 43.7123 84.7843 43.9979C84.9032 44.2835 85.0776 44.5428 85.2973 44.7606L90.2426 49.706C90.4616 49.9232 90.7213 50.095 91.0069 50.2117C91.2924 50.3283 91.5982 50.3874 91.9067 50.3856C92.2151 50.3874 92.5209 50.3283 92.8064 50.2117C93.092 50.095 93.3517 49.9232 93.5707 49.706L102.477 40.6825C102.892 40.2466 103.124 39.6675 103.124 39.0653C103.124 38.4631 102.892 37.884 102.477 37.4481Z" fill="#1037B6"/>
<path d="M60.5237 44.3623C60.3305 43.9678 60.0302 43.6356 59.6573 43.4036C59.2843 43.1715 58.8536 43.0489 58.4144 43.0498H52.2503V27.4404C52.1509 25.7891 51.4249 24.2379 50.2205 23.1038C49.0161 21.9697 47.4242 21.3381 45.7698 21.3381C44.1155 21.3381 42.5235 21.9697 41.3191 23.1038C40.1147 24.2379 39.3887 25.7891 39.2893 27.4404V43.0264H33.1253C32.686 43.023 32.2546 43.1432 31.8804 43.3732C31.5061 43.6032 31.204 43.9337 31.0085 44.3271C30.813 44.7205 30.732 45.1609 30.7748 45.5981C30.8175 46.0353 30.9823 46.4517 31.2503 46.7998L43.9065 63.2061C44.1256 63.4883 44.4063 63.7168 44.7273 63.874C45.0482 64.0311 45.4008 64.1128 45.7581 64.1128C46.1154 64.1128 46.468 64.0311 46.7889 63.874C47.1099 63.7168 47.3906 63.4883 47.6097 63.2061L60.2659 46.7998C60.5297 46.4569 60.6934 46.0477 60.7389 45.6174C60.7844 45.1872 60.7099 44.7528 60.5237 44.3623ZM45.7581 57.9795L38.0003 47.7139H41.7503C42.3719 47.7139 42.968 47.4669 43.4076 47.0274C43.8471 46.5879 44.094 45.9917 44.094 45.3701V27.4404C44.094 27.2065 44.1401 26.9749 44.2296 26.7588C44.3191 26.5427 44.4504 26.3463 44.6158 26.1809C44.7812 26.0155 44.9775 25.8843 45.1936 25.7948C45.4097 25.7052 45.6414 25.6592 45.8753 25.6592C46.3499 25.6591 46.8054 25.846 47.1432 26.1794C47.481 26.5128 47.6738 26.9659 47.68 27.4404V45.3701C47.68 45.9917 47.9269 46.5879 48.3664 47.0274C48.806 47.4669 49.4021 47.7139 50.0237 47.7139H53.7737L45.7581 57.9795Z" fill="#1037B6"/>
<path d="M22.5315 46.6826C20.8096 46.6826 19.1583 47.3666 17.9408 48.5841C16.7233 49.8017 16.0393 51.453 16.0393 53.1748V68.8076H9.87521C9.43595 68.8067 9.00528 68.9293 8.63232 69.1614C8.25935 69.3935 7.95912 69.7257 7.76584 70.1201C7.57497 70.5135 7.49796 70.9525 7.54352 71.3874C7.58908 71.8223 7.75539 72.2358 8.02365 72.5811L20.6565 88.9873C20.8772 89.2741 21.1614 89.5059 21.4867 89.6644C21.812 89.823 22.1696 89.9041 22.5315 89.9014C22.8894 89.9005 23.2424 89.8177 23.5633 89.6592C23.8843 89.5008 24.1647 89.2709 24.383 88.9873L37.0393 72.5811C37.306 72.2346 37.4705 71.8203 37.5141 71.3852C37.5578 70.9501 37.4788 70.5115 37.2862 70.1189C37.0936 69.7263 36.7949 69.3955 36.4241 69.1638C36.0533 68.932 35.625 68.8087 35.1877 68.8076H29.0002V53.1748C29.0002 51.457 28.3194 49.8093 27.107 48.5924C25.8945 47.3756 24.2492 46.6888 22.5315 46.6826ZM30.4065 73.4951L22.5315 83.7139L14.5627 73.4951H18.3127C18.9343 73.4951 19.5305 73.2482 19.97 72.8087C20.4095 72.3691 20.6565 71.773 20.6565 71.1514V53.1748C20.6275 52.9221 20.6523 52.6662 20.7292 52.4238C20.8061 52.1814 20.9334 51.9579 21.1027 51.7682C21.272 51.5784 21.4795 51.4265 21.7116 51.3225C21.9437 51.2185 22.1951 51.1648 22.4494 51.1648C22.7038 51.1648 22.9552 51.2185 23.1873 51.3225C23.4194 51.4265 23.6269 51.5784 23.7962 51.7682C23.9655 51.9579 24.0927 52.1814 24.1696 52.4238C24.2465 52.6662 24.2713 52.9221 24.2424 53.1748V71.1514C24.2424 71.773 24.4893 72.3691 24.9289 72.8087C25.3684 73.2482 25.9645 73.4951 26.5861 73.4951H30.4065Z" fill="#1037B6"/>
<path d="M43.0628 114.722C43.2879 115.03 43.5849 115.279 43.928 115.446C44.2711 115.614 44.6499 115.695 45.0316 115.683C45.3934 115.685 45.751 115.604 46.0763 115.446C46.4016 115.287 46.6858 115.055 46.9066 114.768L59.5394 98.3622C59.7856 98.0292 59.9392 97.6368 59.9845 97.2251C60.0298 96.8134 59.9651 96.3971 59.7972 96.0184C59.6039 95.624 59.3037 95.2918 58.9307 95.0597C58.5577 94.8277 58.1271 94.7051 57.6878 94.7059H51.4066V78.9091C51.4597 78.0253 51.3316 77.1399 51.0299 76.3075C50.7283 75.475 50.2596 74.7131 49.6526 74.0685C49.0456 73.4239 48.3132 72.9102 47.5004 72.5592C46.6875 72.2081 45.8115 72.027 44.9261 72.027C44.0407 72.027 43.1646 72.2081 42.3518 72.5592C41.539 72.9102 40.8066 73.4239 40.1996 74.0685C39.5926 74.7131 39.1239 75.475 38.8222 76.3075C38.5206 77.1399 38.3924 78.0253 38.4456 78.9091V94.5888H32.2815C31.8423 94.5879 31.4116 94.7105 31.0386 94.9425C30.6657 95.1746 30.3654 95.5068 30.1722 95.9013C30.0009 96.2779 29.9324 96.6931 29.9735 97.1047C30.0147 97.5164 30.1641 97.9098 30.4065 98.245L43.0628 114.722ZM40.7191 99.2059C41.3407 99.2059 41.9368 98.959 42.3763 98.5195C42.8159 98.0799 43.0628 97.4838 43.0628 96.8622V78.9091C43.0339 78.6564 43.0587 78.4005 43.1356 78.158C43.2125 77.9156 43.3397 77.6922 43.509 77.5024C43.6783 77.3126 43.8858 77.1608 44.1179 77.0568C44.35 76.9528 44.6014 76.899 44.8558 76.899C45.1101 76.899 45.3615 76.9528 45.5936 77.0568C45.8257 77.1608 46.0332 77.3126 46.2025 77.5024C46.3718 77.6922 46.4991 77.9156 46.576 78.158C46.6529 78.4005 46.6777 78.6564 46.6487 78.9091V96.9325C46.6487 97.5541 46.8957 98.1503 47.3352 98.5898C47.7747 99.0293 48.3709 99.2763 48.9925 99.2763H52.7425L45.0316 109.448L37.0394 99.2763L40.7191 99.2059Z" fill="#1037B6"/>
</svg>
