<svg width="151" height="151" viewBox="0 0 151 151" fill="none" xmlns="http://www.w3.org/2000/svg">
<g clip-path="url(#clip0_73_4773)">
<path d="M2.84375 7.87012H148.156V139.12H2.84375V7.87012Z" fill="#F2FBFF"/>
<path d="M28.625 141.464V91.4213C28.625 90.2746 28.9615 89.153 29.5928 88.1957C30.224 87.2384 31.1224 86.4873 32.1764 86.0356L61.4375 73.4951H89.5625L118.824 86.0356C119.878 86.4873 120.776 87.2384 121.407 88.1957C122.039 89.153 122.375 90.2746 122.375 91.4213V141.464H28.625Z" fill="#1037B6"/>
<path d="M89.5625 73.4951L96.5938 94.5889L75.5 89.9014L89.5625 73.4951Z" fill="#FFFDFA"/>
<path d="M61.4375 73.4951L54.4062 94.5889L75.5 89.9014L61.4375 73.4951Z" fill="#FFFDFA"/>
<path d="M2.84375 7.87012H148.156V26.6201H2.84375V7.87012Z" fill="#F68B21"/>
<path d="M142.297 148.495H8.70312C7.14912 148.495 5.65877 147.878 4.55992 146.779C3.46108 145.68 2.84375 144.19 2.84375 142.636V134.433H52.0625L56.75 139.12H94.25L98.9375 134.433H148.156V142.636C148.156 144.19 147.539 145.68 146.44 146.779C145.341 147.878 143.851 148.495 142.297 148.495Z" fill="#F68B21"/>
<path d="M89.5625 73.4951L75.5 89.9014L61.4375 73.4951L66.125 59.4326H84.875L89.5625 73.4951Z" fill="#FFD4CF"/>
<path d="M86.556 64.4758L84.8749 59.4326H66.1249L64.4277 64.5244L70.7667 67.6943C72.2393 68.4306 73.8638 68.812 75.5102 68.8078C77.1566 68.8036 78.7792 68.4141 80.248 67.6703L86.556 64.4758Z" fill="#FBB8B0"/>
<path d="M77.8438 3.18262H88.3906C89.9446 3.18262 91.435 3.79994 92.5338 4.89879C93.6327 5.99763 94.25 7.48799 94.25 9.04199V21.9326H77.8438V3.18262Z" fill="#1037B6"/>
<path d="M47.375 46.542V53.5732C47.375 55.1272 46.7577 56.6176 45.6588 57.7164C44.56 58.8153 43.0696 59.4326 41.5156 59.4326H30.9688L21.5938 68.8076L19.25 59.4326H18.0781C16.5241 59.4326 15.0338 58.8153 13.9349 57.7164C12.8361 56.6176 12.2188 55.1272 12.2188 53.5732V46.542C12.2188 44.988 12.8361 43.4976 13.9349 42.3988C15.0338 41.2999 16.5241 40.6826 18.0781 40.6826H41.5156C43.0696 40.6826 44.56 41.2999 45.6588 42.3988C46.7577 43.4976 47.375 44.988 47.375 46.542Z" fill="#F68B21"/>
<path d="M103.625 55.917V62.9482C103.625 64.5022 104.242 65.9926 105.341 67.0914C106.44 68.1903 107.93 68.8076 109.484 68.8076H120.031L129.406 78.1826L131.75 68.8076H132.922C134.476 68.8076 135.966 68.1903 137.065 67.0914C138.164 65.9926 138.781 64.5022 138.781 62.9482V55.917C138.781 54.363 138.164 52.8726 137.065 51.7738C135.966 50.6749 134.476 50.0576 132.922 50.0576H109.484C107.93 50.0576 106.44 50.6749 105.341 51.7738C104.242 52.8726 103.625 54.363 103.625 55.917Z" fill="#F68B21"/>
<path d="M94.25 21.9326H56.75V50.0131C56.75 51.6453 57.2045 53.2453 58.0627 54.6338C58.9208 56.0223 60.1486 57.1444 61.6086 57.8743L72.8633 63.5017C73.6814 63.9107 74.5839 64.1225 75.4985 64.1202C76.4132 64.1178 77.3146 63.9014 78.1306 63.4882L89.4318 57.7653C90.8812 57.0313 92.0987 55.91 92.9492 54.5259C93.7998 53.1417 94.25 51.5489 94.25 49.9243V21.9326Z" fill="#FFD4CF"/>
<path d="M71.3044 26.6201H49.7188V11.9717C49.7188 9.64068 50.6447 7.40514 52.293 5.75687C53.9413 4.10861 56.1768 3.18262 58.5078 3.18262H84.875L79.7229 20.3564C79.1797 22.1669 78.0674 23.7541 76.5509 24.8824C75.0344 26.0108 73.1946 26.6201 71.3044 26.6201Z" fill="#1037B6"/>
<path d="M94.25 24.2764H100.109C101.663 24.2764 103.154 24.8937 104.253 25.9925C105.351 27.0914 105.969 28.5817 105.969 30.1357V37.167C105.969 38.721 105.351 40.2114 104.253 41.3102C103.154 42.409 101.663 43.0264 100.109 43.0264H94.25V24.2764Z" fill="#1037B6"/>
<path d="M9.875 14.9014H14.5625V19.5889H9.875V14.9014Z" fill="black"/>
<path d="M19.25 14.9014H23.9375V19.5889H19.25V14.9014Z" fill="black"/>
<path d="M28.625 14.9014H33.3125V19.5889H28.625V14.9014Z" fill="black"/>
<path d="M136.438 14.9014H141.125V19.5889H136.438V14.9014Z" fill="black"/>
<path d="M127.062 14.9014H131.75V19.5889H127.062V14.9014Z" fill="black"/>
<path d="M63.7812 33.6514H68.4688V38.3389H63.7812V33.6514Z" fill="black"/>
<path d="M82.5312 33.6514H87.2188V38.3389H82.5312V33.6514Z" fill="black"/>
<path d="M73.1562 99.2764H77.8438V103.964H73.1562V99.2764Z" fill="black"/>
<path d="M73.1562 110.995H77.8438V115.683H73.1562V110.995Z" fill="black"/>
<path d="M18.0781 38.3389C15.9033 38.3413 13.8182 39.2064 12.2804 40.7442C10.7425 42.2821 9.87748 44.3672 9.875 46.542V53.5732C9.87736 55.6331 10.6536 57.6169 12.0499 59.1314C13.4461 60.6458 15.3605 61.5804 17.4134 61.7497L19.32 69.376C19.4206 69.7784 19.6262 70.1468 19.9157 70.4438C20.2052 70.7408 20.5684 70.9556 20.9681 71.0663C21.3678 71.1771 21.7898 71.1797 22.1908 71.0741C22.5919 70.9684 22.9578 70.7582 23.2511 70.4649L31.9394 61.7764H41.5156C43.6905 61.7739 45.7755 60.9088 47.3134 59.371C48.8512 57.8331 49.7163 55.7481 49.7188 53.5732V46.542C49.7163 44.3672 48.8512 42.2821 47.3134 40.7442C45.7755 39.2064 43.6905 38.3413 41.5156 38.3389H18.0781ZM45.0312 46.542V53.5732C45.0302 54.5053 44.6595 55.399 44.0004 56.0581C43.3413 56.7171 42.4477 57.0879 41.5156 57.0889H30.9688C30.661 57.0889 30.3562 57.1495 30.0718 57.2673C29.7875 57.385 29.5291 57.5577 29.3114 57.7753L22.8635 64.2232L21.5237 58.8643C21.397 58.3572 21.1044 57.907 20.6924 57.5853C20.2804 57.2636 19.7727 57.0889 19.25 57.0889H18.0781C17.146 57.0879 16.2524 56.7171 15.5933 56.0581C14.9342 55.399 14.5635 54.5053 14.5625 53.5732V46.542C14.5635 45.6099 14.9342 44.7163 15.5933 44.0572C16.2524 43.3981 17.146 43.0274 18.0781 43.0264H41.5156C42.4477 43.0274 43.3413 43.3981 44.0004 44.0572C44.6595 44.7163 45.0302 45.6099 45.0312 46.542Z" fill="black"/>
<path d="M101.281 55.917V62.9482C101.284 65.1231 102.149 67.2081 103.687 68.746C105.224 70.2838 107.31 71.1489 109.484 71.1514H119.061L127.749 79.8399C128.042 80.1332 128.408 80.3434 128.809 80.4491C129.21 80.5547 129.632 80.552 130.032 80.4413C130.432 80.3306 130.795 80.1158 131.084 79.8188C131.374 79.5218 131.579 79.1534 131.68 78.751L133.587 71.1247C135.64 70.9554 137.554 70.0208 138.95 68.5064C140.346 66.9919 141.123 65.0081 141.125 62.9482V55.917C141.123 53.7421 140.257 51.6571 138.72 50.1192C137.182 48.5814 135.097 47.7163 132.922 47.7139H109.484C107.31 47.7163 105.224 48.5814 103.687 50.1192C102.149 51.6571 101.284 53.7421 101.281 55.917ZM105.969 55.917C105.97 54.9849 106.34 54.0913 107 53.4322C107.659 52.7731 108.552 52.4024 109.484 52.4014H132.922C133.854 52.4024 134.748 52.7731 135.407 53.4322C136.066 54.0913 136.436 54.9849 136.438 55.917V62.9482C136.436 63.8803 136.066 64.774 135.407 65.433C134.748 66.0921 133.854 66.4629 132.922 66.4639H131.75C131.227 66.4639 130.72 66.6386 130.308 66.9603C129.896 67.282 129.603 67.7322 129.476 68.2393L128.137 73.5982L121.689 67.1503C121.471 66.9327 121.213 66.76 120.928 66.6422C120.644 66.5245 120.339 66.4639 120.031 66.4639H109.484C108.552 66.4629 107.659 66.0921 107 65.433C106.34 64.774 105.97 63.8803 105.969 62.9482V55.917Z" fill="black"/>
<path d="M145.812 132.089H124.719V91.4213C124.72 89.8156 124.249 88.2449 123.365 86.9044C122.481 85.5639 121.223 84.5126 119.747 83.8811L91.4533 71.7555L87.9219 61.1576L90.4915 59.8563C92.331 58.9312 93.8764 57.5119 94.9543 55.7576C96.0322 54.0033 96.5999 51.9833 96.5938 49.9243V45.647L97.1472 45.3704H100.109C102.284 45.3679 104.369 44.5029 105.907 42.965C107.445 41.4272 108.31 39.3421 108.312 37.1673V30.1357C108.31 27.9609 107.445 25.8758 105.907 24.338C104.369 22.8002 102.284 21.9351 100.109 21.9326H96.5938V9.04199C96.5913 6.86715 95.7262 4.78209 94.1884 3.24425C92.6505 1.7064 90.5655 0.841348 88.3906 0.838867L58.5078 0.838867C55.5562 0.842201 52.7265 2.01619 50.6394 4.10328C48.5523 6.19036 47.3783 9.0201 47.375 11.9717V26.6201C47.375 27.2417 47.6219 27.8379 48.0615 28.2774C48.501 28.7169 49.0971 28.9639 49.7188 28.9639H54.4062V50.0134C54.3992 52.0823 54.9721 54.1118 56.0598 55.8717C57.1476 57.6317 58.7067 59.0516 60.5604 59.9705L63.0585 61.2197L59.5467 71.7555L31.2532 83.8814C29.7769 84.5128 28.5186 85.564 27.6346 86.9045C26.7507 88.245 26.2801 89.8156 26.2812 91.4213V132.089H5.1875V64.1201H0.5V142.636C0.502481 144.811 1.36753 146.896 2.90538 148.433C4.44323 149.971 6.52828 150.836 8.70312 150.839H120.031V146.151H8.70312C7.77103 146.15 6.87741 145.78 6.21832 145.121C5.55923 144.461 5.18851 143.568 5.1875 142.636V136.776H51.0919L55.0927 140.777C55.3103 140.995 55.5687 141.168 55.8531 141.285C56.1374 141.403 56.4422 141.464 56.75 141.464H94.25C94.5578 141.464 94.8626 141.403 95.1469 141.285C95.4313 141.168 95.6897 140.995 95.9073 140.777L99.9081 136.776H145.812V142.636C145.811 143.568 145.441 144.461 144.782 145.121C144.123 145.78 143.229 146.15 142.297 146.151H124.719V150.839H142.297C144.472 150.836 146.557 149.971 148.095 148.433C149.632 146.896 150.498 144.811 150.5 142.636V108.651H145.812V132.089ZM62.3521 78.1636L71.1784 88.4608L57.9389 91.4028L62.3521 78.1636ZM88.6479 78.1636L93.0611 91.4028L79.8216 88.4608L88.6479 78.1636ZM100.109 26.6201C101.041 26.6211 101.935 26.9918 102.594 27.6509C103.253 28.31 103.624 29.2036 103.625 30.1357V37.167C103.624 38.0991 103.253 38.9927 102.594 39.6518C101.935 40.3109 101.041 40.6816 100.109 40.6826H96.5938V26.6201H100.109ZM91.9062 9.04199V19.5889H82.4003L86.619 5.52637H88.3906C89.3227 5.52738 90.2163 5.89809 90.8754 6.55718C91.5345 7.21627 91.9052 8.1099 91.9062 9.04199ZM52.0625 11.9717C52.0644 10.2629 52.7441 8.62461 53.9524 7.4163C55.1607 6.20799 56.799 5.52831 58.5078 5.52637H81.725L77.477 19.6829C77.0844 21.0138 76.2704 22.1813 75.1572 23.0097C74.044 23.8381 72.692 24.2826 71.3044 24.2764H52.0625V11.9717ZM59.0938 50.0134V28.9639H71.3044C73.085 28.972 74.8413 28.5501 76.4239 27.734C78.0065 26.9179 79.3687 25.7318 80.3946 24.2764H91.9062V42.7498L77.2903 50.0576H70.8125V54.7451H77.8438C78.2076 54.7452 78.5666 54.6604 78.892 54.4976L91.9062 47.9904V49.924C91.9096 51.1162 91.5808 52.2857 90.9566 53.3014C90.3324 54.3171 89.4376 55.1389 88.3725 55.6744L77.0715 61.397C76.5815 61.6436 76.0408 61.7728 75.4923 61.7741C74.9437 61.7755 74.4024 61.6491 73.9112 61.4049L62.6565 55.7775C61.5834 55.2456 60.6808 54.4236 60.0511 53.4048C59.4214 52.386 59.0897 51.2111 59.0938 50.0134ZM71.8148 65.5993C72.9609 66.1694 74.2242 66.4645 75.5043 66.4612C76.7844 66.4579 78.0461 66.1563 79.1894 65.5803L83.6929 63.2998L86.9196 72.9786L75.5 86.2999L64.0804 72.9771L67.2939 63.3385L71.8148 65.5993ZM98.9375 132.089C98.6297 132.089 98.3249 132.149 98.0406 132.267C97.7562 132.385 97.4978 132.558 97.2802 132.775L93.2794 136.776H57.7206L53.7198 132.775C53.5022 132.558 53.2438 132.385 52.9594 132.267C52.6751 132.149 52.3703 132.089 52.0625 132.089H49.7188V113.339H45.0312V132.089H30.9688V91.4213C30.9682 90.7331 31.1699 90.06 31.5487 89.4855C31.9276 88.911 32.4668 88.4605 33.0995 88.1898L57.5624 77.7054L52.1817 93.848C52.0505 94.2414 52.0261 94.6627 52.1109 95.0687C52.1958 95.4747 52.3868 95.851 52.6646 96.159C52.9424 96.467 53.297 96.6958 53.6921 96.822C54.0872 96.9482 54.5088 96.9672 54.9137 96.8773L75.5 92.3037L96.0855 96.8784C96.4904 96.9684 96.9119 96.9493 97.307 96.8232C97.7021 96.697 98.0567 96.4682 98.3345 96.1601C98.6123 95.8521 98.8033 95.4759 98.8882 95.0699C98.973 94.6639 98.9486 94.2426 98.8174 93.8491L93.4367 77.7065L117.9 88.1907C118.532 88.4613 119.072 88.9116 119.451 89.4859C119.829 90.0603 120.031 90.7332 120.031 91.4213V132.089H105.969V113.339H101.281V132.089H98.9375Z" fill="black"/>
<path d="M148.156 5.52637H101.281V10.2139H145.812V24.2764H113V28.9639H145.812V103.964H150.5V7.87012C150.5 7.24852 150.253 6.65237 149.814 6.21284C149.374 5.7733 148.778 5.52637 148.156 5.52637Z" fill="black"/>
<path d="M5.1875 28.9639H42.6875V24.2764H5.1875V10.2139H42.6875V5.52637H2.84375C2.22215 5.52637 1.62601 5.7733 1.18647 6.21284C0.74693 6.65237 0.5 7.24852 0.5 7.87012L0.5 59.4326H5.1875V28.9639Z" fill="black"/>
</g>
<defs>
<clipPath id="clip0_73_4773">
<rect width="150" height="150" fill="white" transform="translate(0.5 0.838867)"/>
</clipPath>
</defs>
</svg>
